<svg xmlns="http://www.w3.org/2000/svg" viewBox="0 0 1200 800"><rect width="1200" height="800" fill="#173f3a"/><rect x="52" y="52" width="1096" height="696" fill="#efeee9"/><g fill="none" stroke="#173f3a" stroke-opacity=".15"><path d="M52 190h1096M52 330h1096M52 470h1096M52 610h1096"/><path d="M220 52v696M440 52v696M660 52v696M880 52v696"/></g><rect x="92" y="96" width="980" height="92" fill="#22302c"/><text x="122" y="153" fill="#f7f6f2" font-family="Georgia,serif" font-size="28">DATA / ANALYSIS</text><rect x="92" y="228" width="610" height="410" fill="#fff" stroke="#173f3a" stroke-opacity=".22"/><text x="122" y="270" fill="#173f3a" font-family="Arial,sans-serif" font-size="16" letter-spacing="3">EVIDENCE MAP</text><path d="M135 570V320M135 570h510" stroke="#173f3a" stroke-width="3"/><path d="M165 520L235 475L310 490L380 410L455 430L530 355L610 375" fill="none" stroke="#a34f3f" stroke-width="9"/><g fill="#a34f3f"><circle cx="235" cy="475" r="8"/><circle cx="380" cy="410" r="8"/><circle cx="530" cy="355" r="8"/></g><rect x="740" y="228" width="332" height="190" fill="#e9f0eb"/><text x="770" y="270" fill="#173f3a" font-family="Arial,sans-serif" font-size="16" letter-spacing="3">TABLE</text><g fill="#173f3a" fill-opacity=".3"><rect x="770" y="300" width="270" height="10"/><rect x="770" y="332" width="210" height="10"/><rect x="770" y="364" width="240" height="10"/></g><rect x="740" y="448" width="332" height="190" fill="#fff" stroke="#173f3a" stroke-opacity=".2"/><text x="770" y="490" fill="#173f3a" font-family="Arial,sans-serif" font-size="16" letter-spacing="3">METHOD</text><path d="M770 525h240M770 555h190M770 585h220" stroke="#173f3a" stroke-width="7" stroke-opacity=".28"/></svg>