<svg xmlns="http://www.w3.org/2000/svg" viewBox="0 0 1200 800"><rect width="1200" height="800" fill="#22302c"/><rect x="48" y="48" width="1104" height="704" fill="#f6f3ed"/><g fill="none" stroke="#173f3a" stroke-opacity=".16"><path d="M48 190h1104M48 350h1104M48 510h1104M48 670h1104"/><path d="M210 48v704M450 48v704M690 48v704M930 48v704"/></g><rect x="92" y="98" width="360" height="190" fill="#173f3a"/><text x="122" y="145" fill="#f7f6f2" font-family="Georgia,serif" font-size="25">EXPERT GUIDANCE</text><text x="122" y="190" fill="#b9c1bc" font-family="Arial,sans-serif" font-size="15" letter-spacing="2">REVIEW / DISCUSS / REFINE</text><path d="M122 235h270" stroke="#a34f3f" stroke-width="5"/><circle cx="590" cy="220" r="88" fill="#e7e4dc" stroke="#173f3a" stroke-width="5"/><circle cx="590" cy="185" r="27" fill="#173f3a"/><path d="M536 285c15-65 94-65 109 0" fill="#173f3a"/><rect x="750" y="105" width="320" height="230" fill="#fff" stroke="#173f3a" stroke-opacity=".25"/><path d="M785 150h250M785 182h205M785 214h235M785 246h175" stroke="#173f3a" stroke-width="8" stroke-opacity=".3"/><rect x="92" y="350" width="978" height="320" fill="#e9f0eb"/><path d="M150 600L320 500L470 555L650 425L820 480L1000 390" fill="none" stroke="#173f3a" stroke-width="7"/><g fill="#a34f3f"><circle cx="320" cy="500" r="9"/><circle cx="650" cy="425" r="9"/><circle cx="1000" cy="390" r="9"/></g><path d="M150 600h850M150 600V395" stroke="#173f3a" stroke-width="2" stroke-opacity=".35"/><text x="150" y="410" fill="#173f3a" font-family="Arial,sans-serif" font-size="16" letter-spacing="3">CONSULTATION / FRAMEWORK / REVIEW</text></svg>